<svg width="60" height="60" viewBox="0 0 60 60" fill="none" xmlns="http://www.w3.org/2000/svg">
<path d="M15 42.5H27.5V37.5H15V42.5ZM40 42.5H45V37.5H40V42.5ZM15 32.5H27.5V27.5H15V32.5ZM40 32.5H45V17.5H40V32.5ZM15 22.5H27.5V17.5H15V22.5ZM10 52.5C8.625 52.5 7.44833 52.0108 6.47 51.0325C5.49 50.0525 5 48.875 5 47.5V12.5C5 11.125 5.49 9.9475 6.47 8.9675C7.44833 7.98917 8.625 7.5 10 7.5H50C51.375 7.5 52.5525 7.98917 53.5325 8.9675C54.5108 9.9475 55 11.125 55 12.5V47.5C55 48.875 54.5108 50.0525 53.5325 51.0325C52.5525 52.0108 51.375 52.5 50 52.5H10ZM10 47.5H50V12.5H10V47.5Z" fill="white"/>
</svg>
