<svg width="60" height="60" viewBox="0 0 60 60" fill="none" xmlns="http://www.w3.org/2000/svg">
<path d="M29.9375 42.5625L40 32.5L29.9375 22.4375L26.4375 25.9375L30.5 30H20V35H30.5L26.4375 39.0625L29.9375 42.5625ZM10 50C8.625 50 7.44833 49.5108 6.47 48.5325C5.49 47.5525 5 46.375 5 45V15C5 13.625 5.49 12.4483 6.47 11.47C7.44833 10.49 8.625 10 10 10H25L30 15H50C51.375 15 52.5525 15.49 53.5325 16.47C54.5108 17.4483 55 18.625 55 20V45C55 46.375 54.5108 47.5525 53.5325 48.5325C52.5525 49.5108 51.375 50 50 50H10ZM10 15V45H50V20H27.9375L22.9375 15H10Z" fill="white"/>
</svg>
