<svg width="34" height="34" viewBox="0 0 34 34" fill="none" xmlns="http://www.w3.org/2000/svg">
<path d="M33.4295 30.7639L27.0176 24.3615C29.0888 21.7221 30.2124 18.4627 30.2079 15.1074C30.2079 12.1195 29.3221 9.1986 27.6624 6.7142C26.0028 4.22979 23.6439 2.29344 20.884 1.14999C18.1241 0.00654566 15.0872 -0.292632 12.1573 0.290292C9.22744 0.873215 6.53618 2.31206 4.42385 4.42487C2.31153 6.53768 0.873014 9.22957 0.290225 12.1601C-0.292564 15.0907 0.00654435 18.1283 1.14973 20.8888C2.29291 23.6493 4.22882 26.0088 6.71265 27.6688C9.19649 29.3288 12.1167 30.2149 15.104 30.2149C18.4585 30.2194 21.7171 29.0954 24.3559 27.0238L30.7568 33.4372C30.9325 33.6149 31.1415 33.756 31.3719 33.8526C31.6023 33.9492 31.8495 33.9993 32.0993 34C32.3491 34.0007 32.5965 33.952 32.8275 33.8567C33.0584 33.7614 33.2682 33.6214 33.4448 33.4447C33.6215 33.268 33.7615 33.0582 33.8567 32.8272C33.952 32.5962 34.0007 32.3487 34 32.0988C33.9993 31.849 33.9492 31.6017 33.8527 31.3713C33.7561 31.1408 33.6149 30.9318 33.4373 30.7561L33.4295 30.7639ZM3.77052 15.109C3.7699 12.8677 4.43384 10.6765 5.67835 8.81262C6.92286 6.94874 8.69204 5.49589 10.7621 4.63781C12.8322 3.77974 15.1102 3.55498 17.3081 3.99198C19.5059 4.42897 21.5247 5.50809 23.1093 7.09284C24.694 8.67759 25.7731 10.6968 26.2103 12.895C26.6475 15.0933 26.4231 17.3719 25.5655 19.4426C24.7079 21.5132 23.2556 23.283 21.3924 24.5281C19.5291 25.7731 17.3385 26.4375 15.0977 26.4372C12.0931 26.4372 9.21162 25.2434 7.08707 23.1183C4.96252 20.9933 3.76896 18.1111 3.76896 15.1059L3.77052 15.109Z" fill="#959595"/>
</svg>
