<svg width="50" height="50" viewBox="0 0 50 50" fill="none" xmlns="http://www.w3.org/2000/svg">
<path d="M8.3335 43.75V6.25H12.5002V10.4167H16.6668V6.25H33.3335V10.4167H37.5002V6.25H41.6668V43.75H37.5002V39.5833H33.3335V43.75H16.6668V39.5833H12.5002V43.75H8.3335ZM12.5002 35.4167H16.6668V31.25H12.5002V35.4167ZM12.5002 27.0833H16.6668V22.9167H12.5002V27.0833ZM12.5002 18.75H16.6668V14.5833H12.5002V18.75ZM33.3335 35.4167H37.5002V31.25H33.3335V35.4167ZM33.3335 27.0833H37.5002V22.9167H33.3335V27.0833ZM33.3335 18.75H37.5002V14.5833H33.3335V18.75ZM20.8335 39.5833H29.1668V10.4167H20.8335V39.5833Z" fill="white"/>
</svg>
